<mxfile host="Electron" agent="Mozilla/5.0 (Macintosh; Intel Mac OS X 10_15_7) AppleWebKit/537.36 (KHTML, like Gecko) draw.io/26.0.9 Chrome/128.0.6613.186 Electron/32.2.5 Safari/537.36" version="26.0.9">
  <diagram name="Page-1" id="T0i6UtzCcpaUWZAt_I-J">
    <mxGraphModel dx="2284" dy="907" grid="1" gridSize="10" guides="1" tooltips="1" connect="1" arrows="1" fold="1" page="1" pageScale="1" pageWidth="850" pageHeight="1100" math="0" shadow="0">
      <root>
        <mxCell id="0" />
        <mxCell id="1" parent="0" />
        <mxCell id="EOZQua0KFu1xvlMhTm25-1" value="" style="rounded=1;whiteSpace=wrap;html=1;" vertex="1" parent="1">
          <mxGeometry x="20" y="250" width="780" height="250" as="geometry" />
        </mxCell>
        <mxCell id="EOZQua0KFu1xvlMhTm25-10" value="" style="edgeStyle=orthogonalEdgeStyle;rounded=0;orthogonalLoop=1;jettySize=auto;html=1;endArrow=none;startFill=0;" edge="1" parent="1" source="EOZQua0KFu1xvlMhTm25-2" target="EOZQua0KFu1xvlMhTm25-9">
          <mxGeometry relative="1" as="geometry" />
        </mxCell>
        <mxCell id="EOZQua0KFu1xvlMhTm25-2" value="&lt;font style=&quot;font-size: 18px;&quot;&gt;Input Map&lt;/font&gt;" style="rounded=1;whiteSpace=wrap;html=1;fontStyle=1" vertex="1" parent="1">
          <mxGeometry x="50" y="345" width="120" height="60" as="geometry" />
        </mxCell>
        <mxCell id="EOZQua0KFu1xvlMhTm25-3" value="&lt;span style=&quot;font-size: 18px;&quot;&gt;&lt;b&gt;Processamento de Informações&lt;/b&gt;&lt;/span&gt;" style="rounded=1;whiteSpace=wrap;html=1;" vertex="1" parent="1">
          <mxGeometry x="320" y="280" width="180" height="190" as="geometry" />
        </mxCell>
        <mxCell id="EOZQua0KFu1xvlMhTm25-16" value="" style="edgeStyle=orthogonalEdgeStyle;rounded=0;orthogonalLoop=1;jettySize=auto;html=1;" edge="1" parent="1" source="EOZQua0KFu1xvlMhTm25-4" target="EOZQua0KFu1xvlMhTm25-15">
          <mxGeometry relative="1" as="geometry" />
        </mxCell>
        <mxCell id="EOZQua0KFu1xvlMhTm25-4" value="&lt;font style=&quot;font-size: 18px;&quot;&gt;Output Map&lt;/font&gt;" style="rounded=1;whiteSpace=wrap;html=1;fontStyle=1" vertex="1" parent="1">
          <mxGeometry x="650" y="345" width="120" height="60" as="geometry" />
        </mxCell>
        <mxCell id="EOZQua0KFu1xvlMhTm25-7" value="" style="edgeStyle=orthogonalEdgeStyle;rounded=0;orthogonalLoop=1;jettySize=auto;html=1;" edge="1" parent="1" source="EOZQua0KFu1xvlMhTm25-6" target="EOZQua0KFu1xvlMhTm25-2">
          <mxGeometry relative="1" as="geometry" />
        </mxCell>
        <mxCell id="EOZQua0KFu1xvlMhTm25-6" value="&lt;b&gt;&lt;font style=&quot;font-size: 14px;&quot;&gt;Entrada do Ambiente em Linguagem Natural&lt;/font&gt;&lt;/b&gt;" style="text;html=1;align=center;verticalAlign=middle;whiteSpace=wrap;rounded=0;" vertex="1" parent="1">
          <mxGeometry x="-210" y="360" width="160" height="30" as="geometry" />
        </mxCell>
        <mxCell id="EOZQua0KFu1xvlMhTm25-11" value="" style="edgeStyle=orthogonalEdgeStyle;rounded=0;orthogonalLoop=1;jettySize=auto;html=1;" edge="1" parent="1" source="EOZQua0KFu1xvlMhTm25-9" target="EOZQua0KFu1xvlMhTm25-3">
          <mxGeometry relative="1" as="geometry" />
        </mxCell>
        <mxCell id="EOZQua0KFu1xvlMhTm25-9" value="&lt;font style=&quot;font-size: 16px;&quot;&gt;Chunk&lt;/font&gt;" style="ellipse;whiteSpace=wrap;html=1;aspect=fixed;" vertex="1" parent="1">
          <mxGeometry x="220" y="350" width="50" height="50" as="geometry" />
        </mxCell>
        <mxCell id="EOZQua0KFu1xvlMhTm25-12" value="" style="edgeStyle=orthogonalEdgeStyle;rounded=0;orthogonalLoop=1;jettySize=auto;html=1;endArrow=none;startFill=0;" edge="1" parent="1" target="EOZQua0KFu1xvlMhTm25-14">
          <mxGeometry relative="1" as="geometry">
            <mxPoint x="500" y="375" as="sourcePoint" />
          </mxGeometry>
        </mxCell>
        <mxCell id="EOZQua0KFu1xvlMhTm25-13" value="" style="edgeStyle=orthogonalEdgeStyle;rounded=0;orthogonalLoop=1;jettySize=auto;html=1;" edge="1" parent="1" source="EOZQua0KFu1xvlMhTm25-14">
          <mxGeometry relative="1" as="geometry">
            <mxPoint x="650" y="375" as="targetPoint" />
          </mxGeometry>
        </mxCell>
        <mxCell id="EOZQua0KFu1xvlMhTm25-14" value="&lt;font style=&quot;font-size: 16px;&quot;&gt;Chunk&lt;/font&gt;" style="ellipse;whiteSpace=wrap;html=1;aspect=fixed;" vertex="1" parent="1">
          <mxGeometry x="550" y="350" width="50" height="50" as="geometry" />
        </mxCell>
        <mxCell id="EOZQua0KFu1xvlMhTm25-15" value="&lt;b&gt;&lt;font style=&quot;font-size: 14px;&quot;&gt;Saída Para o Ambiente em Linguagem Natural&lt;/font&gt;&lt;/b&gt;" style="text;html=1;align=center;verticalAlign=middle;whiteSpace=wrap;rounded=0;" vertex="1" parent="1">
          <mxGeometry x="870" y="360" width="160" height="30" as="geometry" />
        </mxCell>
      </root>
    </mxGraphModel>
  </diagram>
</mxfile>
